<?xml version="1.0" encoding="UTF-8"?>
<svg width="256px" height="256px" viewBox="0 0 256 256" version="1.1" xmlns="http://www.w3.org/2000/svg" xmlns:xlink="http://www.w3.org/1999/xlink">
    <title>group</title>
    <defs>
        <linearGradient x1="100%" y1="0%" x2="0%" y2="100%" id="linearGradient-1">
            <stop stop-color="#89ABF7" offset="0%"></stop>
            <stop stop-color="#175EC1" offset="100%"></stop>
        </linearGradient>
    </defs>
    <g id="page" stroke="none" stroke-width="1" fill="none" fill-rule="evenodd">
        <g id="group">
            <rect id="square" fill="url(#linearGradient-1)" x="0" y="0" width="256" height="256" rx="32"></rect>
            <path d="M91.387909,228.796998 C89.0511553,227.037646 87.2043158,224.574751 88.152857,220.569176 L106.199986,144.503111 L63.4847108,144.503111 C60.6328296,144.503111 57.7872059,142.500126 56.8324073,139.496044 C55.8901235,136.498703 55.8901235,133.494423 58.7357473,130.496883 L156.503776,29.3956814 C158.400674,27.3928943 162.201097,26.3914015 165.046905,27.3928943 C167.898602,28.3941888 169.795684,32.3997629 168.847327,36.3987955 L150.800014,112.478341 L193.515289,112.478341 C196.36717,112.478341 199.212794,114.474586 200.167593,117.485408 C201.109876,120.482749 201.109876,123.487029 198.264253,126.484569 L100.496224,227.579031 C97.732314,230.562892 93.7246627,230.562892 91.387909,228.803738 L91.387909,228.796998 Z" id="lightning" fill="#FFFFFF"></path>
        </g>
    </g>
</svg>